<svg xmlns="http://www.w3.org/2000/svg" width="26.066" height="20" viewBox="7.819 6 26.066 20"><path fill="#80CBC4" d="M16.011 12.117c-4.455-.088-8.121 2.658-8.19 6.132-.024 1.208.391 2.345 1.128 3.318C10.217 23.196 8.832 26 8.832 26l4.089-1.762c.88.279 1.839.442 2.841.461 4.455.089 8.123-2.659 8.19-6.134.07-3.472-3.486-6.361-7.941-6.448m16.745 3.333c.738-.973 1.153-2.11 1.129-3.318-.068-3.474-3.737-6.221-8.193-6.131-3.733.072-6.836 2.115-7.701 4.818 1.743.329 3.343 1.043 4.633 2.09 1.86 1.511 2.864 3.525 2.828 5.671.162.004.325.005.488 0a9.879 9.879 0 0 0 2.843-.459l4.089 1.763c-.001-.001-1.386-2.804-.116-4.434"/></svg>