<?xml version="1.0" encoding="utf-8"?>
<!-- Generator: Adobe Illustrator 17.0.0, SVG Export Plug-In . SVG Version: 6.00 Build 0)  -->
<!DOCTYPE svg PUBLIC "-//W3C//DTD SVG 1.1//EN" "http://www.w3.org/Graphics/SVG/1.1/DTD/svg11.dtd">
<svg version="1.1" id="Layer_1" xmlns="http://www.w3.org/2000/svg" xmlns:xlink="http://www.w3.org/1999/xlink" x="0px" y="0px"
   width="26.066px" height="20px" viewBox="7.819 6 26.066 20" enable-background="new 7.819 6 26.066 20" xml:space="preserve">
<path fill="#80CBC4" d="M16.011,12.117c-4.455-0.088-8.121,2.658-8.19,6.132c-0.024,1.208,0.391,2.345,1.128,3.318
  C10.217,23.196,8.832,26,8.832,26l4.089-1.762c0.88,0.279,1.839,0.442,2.841,0.461c4.455,0.089,8.123-2.659,8.19-6.134
  C24.022,15.093,20.466,12.204,16.011,12.117 M32.756,15.45L32.756,15.45c0.738-0.973,1.153-2.11,1.129-3.318
  c-0.068-3.474-3.737-6.221-8.193-6.131c-3.733,0.072-6.836,2.115-7.701,4.818c1.743,0.329,3.343,1.043,4.633,2.09
  c1.86,1.511,2.864,3.525,2.828,5.671c0.162,0.004,0.325,0.005,0.488,0c1.005-0.016,1.961-0.178,2.843-0.459l4.089,1.763
  C32.871,19.883,31.486,17.08,32.756,15.45"/>
</svg>
